# xmcd
#
# Track frame offsets:
#	150
#	3090
#	17480
#	27942
#	40940
#	58185
#	68185
#	76920
#	86967
#	98687
#	108762
#	120137
#	129235
#	136852
#	149880
#	161985
#	171047
#	179445
#	195390
#	205135
#	222612
#	239035
#	251660
#
# Disc length: 3548 seconds
#
# Revision: 5
# Processed by: cddbd v1.5.2PL0 Copyright (c) Steve Scherf et al.
# Submitted via: EZCDAudioConverter 9.1.0.1
#
DISCID=410dda17
DTITLE=ROBÉRIO and SEUS TECLADOS - AO VIVO [CD MCCD 420) CD CENTER
DYEAR=2002
DGENRE=Brega
TTITLE0=ABERTURA (BY GILMAR SINISTRO)
TTITLE1=VOLTA AMOR (BY GILMAR SINISTRO)
TTITLE2=ESTOU APAIXONADO POR VOCÊ (BY GILMAR SINISTRO)
TTITLE3=Ô DE CASA, Ô DE FORA (BY GILMAR SINISTRO)
TTITLE4=LINDA (BY GILMAR SINISTRO)
TTITLE5=AMOR E PAIXÃO (BY GILMAR SINISTRO)
TTITLE6=JEITO BOM (BY GILMAR SINISTRO)
TTITLE7=CHEIRO NO CANGOTE (BY GILMAR SINISTRO)
TTITLE8=ANTES DE VOLTAR PRA CASA (BY GILMAR SINISTRO)
TTITLE9=ALÔ (BY GILMAR SINISTRO)
TTITLE10=ELA NÃO ESTA AQUI (I'D LOVE YOU TO WANT ME) (BY GILMAR SINISTRO)
TTITLE11=TALISMÃ (BY GILMAR SINISTRO)
TTITLE12=VIVO A TE ESPERAR (BY GILMAR SINISTRO)
TTITLE13=ÉS MEU AMOR (IT'S FOR YOU) (BY GILMAR SINISTRO)
TTITLE14=DORMI NA PRAÇA (BY GILMAR SINISTRO)
TTITLE15=TÔ FAZENDO FALTA (BY GILMAR SINISTRO)
TTITLE16=COMO ESQUECER DE VOCÊ (BY GILMAR SINISTRO)
TTITLE17=XOTE DA ALEGRIA (BY GILMAR SINISTRO)
TTITLE18=POUT-POURRI: GABIROBA - QUERO ME CASAR (BY GILMAR SINISTRO)
TTITLE19=O AMOR DEIXOU A GENTE (BY GILMAR SINISTRO)
TTITLE20=SÓ SEI AMAR VOCÊ (BY GILMAR SINISTRO)
TTITLE21=EU SEMPRE TE AMEI (STYCK ON YOU) (BY GILMAR SINISTRO)
TTITLE22=VOLTA LOGO (BY GILMAR SINISTRO)
EXTD=
EXTT0=
EXTT1=
EXTT2=
EXTT3=
EXTT4=
EXTT5=
EXTT6=
EXTT7=
EXTT8=
EXTT9=
EXTT10=
EXTT11=
EXTT12=
EXTT13=
EXTT14=
EXTT15=
EXTT16=
EXTT17=
EXTT18=
EXTT19=
EXTT20=
EXTT21=
EXTT22=
PLAYORDER=
